# xmcd
#
# Track frame offsets:
#	150
#	17785
#	37085
#	56872
#	77887
#	95857
#	114007
#	131245
#	149195
#	169337
#
# Disc length: 2524 seconds
#
# Revision: 3
# Processed by: cddbd v1.5.1PL0 Copyright (c) Steve Scherf et al.
# Submitted via: MusicManager 7.3.0.0 
#
DISCID=9909da0a
DTITLE=Neville Brothers - Uptown
DYEAR=1987
DGENRE=Soul
TTITLE0=Whatever It Takes
TTITLE1=Forever... for Tonight
TTITLE2=You're the One
TTITLE3=Money Back Guarantee (My Love Is Guaranteed)
TTITLE4=Drift Away
TTITLE5=Shek-a-Na-Na
TTITLE6=Old Habits Die Hard
TTITLE7=I Never Needed No One
TTITLE8=Midnight Key
TTITLE9=Spirits of the World
EXTD=
EXTT0=
EXTT1=
EXTT2=
EXTT3=
EXTT4=
EXTT5=
EXTT6=
EXTT7=
EXTT8=
EXTT9=
PLAYORDER=
